<svg xmlns="http://www.w3.org/2000/svg" width="366" height="366" fill="#f2f7f8"><path d="M363.295 341.394c-7.54-5.985-18.067-5.976-25.6.02l-11.164 8.9a6.25 6.25 0 0 1-7.806.007l-11.246-8.922a20.48 20.48 0 0 0-25.6.023l-11.152 8.88a6.24 6.24 0 0 1-7.813 0l-11.155-8.88a20.48 20.48 0 0 0-25.599-.022l-11.26 8.934c-2.295 1.82-5.5 1.82-7.796 0l-11.26-8.934a20.48 20.48 0 0 0-25.6.023l-11.166 8.9c-2.296 1.828-5.505 1.83-7.805.006l-11.26-8.934a20.48 20.48 0 0 0-25.577.002l-11.255 8.935a6.24 6.24 0 0 1-7.806-.006l-11.167-8.893a20.48 20.48 0 0 0-25.601-.023l-11.256 8.93c-2.295 1.822-5.5 1.822-7.797 0l-11.276-8.948c-7.53-5.975-18.044-5.974-25.573-.001-3.092 2.454-3.6 6.95-1.155 10.04a7.15 7.15 0 0 0 10.043 1.156 6.25 6.25 0 0 1 7.797 0l11.275 8.948a20.48 20.48 0 0 0 25.574.001l11.256-8.932c2.3-1.824 5.5-1.82 7.806.008l11.167 8.893c7.533 6 18.062 6.008 25.605.02l11.255-8.935c2.294-1.822 5.5-1.823 7.798-.001l11.258 8.935c7.54 5.985 18.068 5.976 25.602-.022l11.164-8.9c2.294-1.828 5.504-1.832 7.806-.008l11.26 8.934c3.764 3 8.284 4.492 12.784 4.492s9.022-1.493 12.786-4.48l11.26-8.933c2.297-1.824 5.507-1.822 7.804.006l11.155 8.88c7.545 6.007 18.084 6.007 25.628 0l11.15-8.88c2.294-1.828 5.504-1.832 7.806-.007l11.245 8.924a20.48 20.48 0 0 0 25.6-.024l11.166-8.9a6.24 6.24 0 0 1 7.805-.007c3.092 2.453 7.588 1.935 10.043-1.156s1.94-7.586-1.154-10.04zm.001-46.3a20.48 20.48 0 0 0-25.602.02l-11.165 8.9a6.24 6.24 0 0 1-7.805.008l-11.246-8.923a20.48 20.48 0 0 0-25.6.023L270.726 304a6.24 6.24 0 0 1-7.813 0l-11.155-8.88c-7.532-5.996-18.058-6.005-25.6-.02l-11.26 8.933c-2.295 1.82-5.5 1.82-7.796 0l-11.26-8.934a20.48 20.48 0 0 0-25.6.023l-11.166 8.9c-2.296 1.828-5.505 1.83-7.805.006l-11.26-8.934c-7.53-5.975-18.047-5.974-25.577.002l-11.255 8.935c-2.3 1.825-5.5 1.824-7.806-.005l-11.167-8.893a20.48 20.48 0 0 0-25.601-.024l-11.256 8.932a6.25 6.25 0 0 1-7.797 0l-11.276-8.95c-7.528-5.973-18.043-5.974-25.573 0-3.092 2.454-3.6 6.95-1.155 10.04a7.15 7.15 0 0 0 10.043 1.156c2.295-1.822 5.5-1.82 7.797 0l11.275 8.948c7.53 5.975 18.045 5.974 25.574.001l11.255-8.93c2.3-1.825 5.5-1.82 7.807.007l11.167 8.892a20.47 20.47 0 0 0 25.605.02l11.255-8.934c2.294-1.823 5.502-1.823 7.798-.001l11.258 8.934a20.48 20.48 0 0 0 25.602-.021l11.164-8.9c2.298-1.83 5.507-1.83 7.806-.007l11.262 8.933c3.764 2.987 8.274 4.48 12.784 4.48a20.53 20.53 0 0 0 12.787-4.48l11.258-8.934c2.298-1.824 5.507-1.822 7.805.007l11.154 8.88c7.544 6.007 18.082 6.006 25.628-.001l11.15-8.88c2.297-1.828 5.506-1.83 7.806-.007l11.246 8.922a20.48 20.48 0 0 0 25.6-.023l11.165-8.9a6.24 6.24 0 0 1 7.804-.006c3.092 2.454 7.6 1.936 10.044-1.155s1.94-7.587-1.152-10.04zm-.001-46.303c-7.54-5.985-18.07-5.976-25.6.022l-11.164 8.9c-2.296 1.827-5.506 1.832-7.806.007l-11.246-8.922a20.48 20.48 0 0 0-25.6.024l-11.15 8.88c-2.3 1.83-5.513 1.83-7.814 0l-11.155-8.88a20.48 20.48 0 0 0-25.599-.022l-11.26 8.933c-2.295 1.822-5.5 1.82-7.796 0l-11.26-8.934a20.48 20.48 0 0 0-25.6.023l-11.164 8.9c-2.297 1.828-5.506 1.83-7.805.006l-11.26-8.934c-7.53-5.976-18.047-5.974-25.577.002l-11.255 8.935c-2.3 1.826-5.5 1.823-7.807-.006L84.2 248.82c-7.53-5.998-18.06-6.007-25.6-.023l-11.256 8.93c-2.295 1.822-5.5 1.82-7.797 0L28.28 248.78c-7.528-5.973-18.043-5.974-25.573 0-3.092 2.453-3.6 6.948-1.155 10.04a7.15 7.15 0 0 0 10.043 1.156c2.295-1.822 5.5-1.82 7.797 0l11.275 8.948c7.53 5.974 18.044 5.975 25.574.001l11.256-8.93a6.24 6.24 0 0 1 7.806.007l11.167 8.893c7.533 6 18.062 6.008 25.605.02l11.255-8.935c2.294-1.822 5.502-1.823 7.798 0l11.26 8.934c7.542 5.985 18.07 5.976 25.6-.022l11.164-8.9c2.295-1.828 5.505-1.832 7.806-.007l11.262 8.933a20.52 20.52 0 0 0 12.785 4.479c4.5 0 9.022-1.493 12.786-4.48l11.258-8.933c2.298-1.824 5.508-1.822 7.805.007l11.154 8.88c7.545 6.006 18.083 6.006 25.628-.001l11.15-8.88c2.295-1.828 5.504-1.83 7.806-.007l11.246 8.922a20.48 20.48 0 0 0 25.6-.023l11.165-8.9c2.297-1.83 5.506-1.83 7.805-.007 3.093 2.454 7.588 1.936 10.044-1.155s1.937-7.587-1.156-10.04zM307.384 0c-32.322 0-58.617 26.288-58.617 58.602v77.113H120.1v-25.8h76.792a7.15 7.15 0 0 0 7.148-7.146 7.15 7.15 0 0 0-7.148-7.147H120.1v-37.02c0-24.432 19.882-44.3 44.32-44.3s44.32 19.877 44.32 44.3v15.15a7.15 7.15 0 0 0 7.148 7.146 7.15 7.15 0 0 0 7.148-7.146v-15.15C223.035 26.288 196.74 0 164.42 0s-58.617 26.288-58.617 58.602V116.5h-72.68a7.15 7.15 0 0 0-7.148 7.146 7.15 7.15 0 0 0 7.148 7.146h72.68v104.34a7.15 7.15 0 0 0 7.148 7.146 7.15 7.15 0 0 0 7.148-7.146v-5.144h128.668v5.144a7.15 7.15 0 0 0 7.148 7.146 7.15 7.15 0 0 0 7.148-7.146V58.602c0-24.432 19.882-44.3 44.32-44.3s44.32 19.877 44.32 44.3v15.15a7.15 7.15 0 0 0 7.148 7.146A7.15 7.15 0 0 0 366 73.752v-15.15C366 26.288 339.704 0 307.384 0zm-58.617 215.686H120.1V190.1h128.668v25.587zm0-39.88H120.1v-25.8h128.668v25.8zm-18.537-78.09a7.2 7.2 0 0 0-5.053-2.094c-1.88 0-3.724.765-5.054 2.094a7.2 7.2 0 0 0-2.094 5.053c0 1.886.764 3.723 2.094 5.052a7.16 7.16 0 0 0 5.054 2.094 7.17 7.17 0 0 0 5.053-2.094 7.2 7.2 0 0 0 2.095-5.052 7.2 7.2 0 0 0-2.095-5.053zm-218.026 20.87a7.19 7.19 0 0 0-5.053-2.094c-1.88 0-3.725.765-5.054 2.094a7.2 7.2 0 0 0-2.094 5.052 7.2 7.2 0 0 0 2.094 5.053 7.21 7.21 0 0 0 5.054 2.093c1.88 0 3.725-.765 5.053-2.093s2.095-3.174 2.095-5.053a7.19 7.19 0 0 0-2.095-5.052zm346.648-2.084h-72.557a7.15 7.15 0 0 0-7.148 7.146 7.15 7.15 0 0 0 7.148 7.146h72.557a7.15 7.15 0 0 0 7.148-7.146 7.15 7.15 0 0 0-7.148-7.146z"/></svg>