<svg xmlns="http://www.w3.org/2000/svg" width="50" height="46" fill="#cee7ec"><path d="M20.087 9.7c1.25-.524 1.775-2.017 1.2-3.227L19.32 2.33c-.565-1.17-1.936-1.694-3.146-1.17C12.746 2.612 9.8 4.508 7.462 6.807c-2.864 2.702-4.8 5.808-5.85 9.236C.565 19.512 0 24.23 0 30.24v12.383a2.43 2.43 0 0 0 2.42 2.42h15.852a2.43 2.43 0 0 0 2.42-2.42v-15.85a2.43 2.43 0 0 0-2.42-2.42H10.7c.08-4.074 1.05-7.34 2.823-9.802 1.452-1.976 3.63-3.6 6.575-4.84zm28.477 0c1.25-.524 1.774-2.017 1.2-3.227L47.797 2.37a2.41 2.41 0 0 0-3.146-1.17c-3.388 1.452-6.293 3.348-8.672 5.607-2.864 2.743-4.84 5.85-5.9 9.277-1.05 3.388-1.573 8.107-1.573 14.158v12.383a2.43 2.43 0 0 0 2.42 2.42H46.8a2.43 2.43 0 0 0 2.42-2.42V26.773a2.43 2.43 0 0 0-2.42-2.42h-7.623c.08-4.074 1.05-7.34 2.823-9.802 1.452-1.976 3.63-3.6 6.575-4.84z"/></svg>