<svg xmlns="http://www.w3.org/2000/svg" width="78" height="78" fill="#cee7ec"><path d="M36.757 73.983H3.337c-.417 0-.782-.365-.782-.783V37.774c0-.417.365-.783.782-.783s.782.365.782.783v34.644h31.856V51.6c0-.417.365-.783.782-.783s.782.365.782.783v21.6c0 .417-.365.783-.782.783zm36.445-36.26H51.304c-.417 0-.782-.365-.782-.783s.365-.783.782-.783h21.168V4.33H37.435c-.417 0-.782-.365-.782-.783s.365-.783.782-.783h35.767c.417 0 .782.365.782.783V37c0 .417-.365.73-.782.73zM37.748 49.2c-.2 0-.417-.052-.573-.2-.313-.313-.313-.783 0-1.096l10.27-10.278c.313-.313.782-.313 1.095 0s.313.783 0 1.096L38.27 49a.75.75 0 0 1-.52.21z"/><path d="M49.844 40.122c-1.095 0-2.086-.626-2.555-1.722l-1.72-4.122v-.052L33.212 4.435a2.55 2.55 0 0 1 1.408-3.391c.626-.26 1.25-.26 1.877 0s1.095.73 1.303 1.304l14.338 34.59a2.11 2.11 0 0 1 0 1.774 2.44 2.44 0 0 1-1.251 1.252 3.89 3.89 0 0 1-1.043.156zM47.03 33.81l1.668 4.07c.26.626.938.887 1.564.626.21-.052.313-.21.417-.417.052-.157.052-.365 0-.574l-3.232-7.722L36.34 2.974c-.104-.21-.26-.365-.47-.47s-.47-.104-.678 0a1.06 1.06 0 0 0-.573 1.357L47.03 33.81c0-.052 0-.052 0 0z"/><path d="M4.327 35.374c-.2 0-.417-.052-.574-.2-.313-.313-.313-.783 0-1.096L33.63 4.174c.313-.313.782-.313 1.095 0s.313.783 0 1.096L4.9 35.113c-.156.157-.365.26-.574.26zM46.3 34.8c-.417 0-.782-.365-.782-.783s.365-.783.782-.783.782.365.782.783-.365.783-.782.783z"/><path d="M37.852 52.748c-.313 0-.626-.052-.886-.157L2.972 38.504c-1.303-.522-1.93-2.035-1.408-3.34.52-1.252 1.877-1.774 3.024-1.304L38 47.74h.052l.574.2c1.303.522 1.93 2.035 1.408 3.34a2.44 2.44 0 0 1-1.251 1.252 2.04 2.04 0 0 1-.938.21zM3.024 35.687a1.02 1.02 0 0 0 .52 1.304l.104.052 33.9 14.035c.156.052.365.052.574 0s.313-.2.417-.417a1.02 1.02 0 0 0-.52-1.304l-.573-.26L4.067 35.27c-.417-.104-.886.052-1.043.417zm71.846 4.435a2.45 2.45 0 0 1-2.451-2.452v-.73c0-.417.365-.783.782-.783s.782.365.782.783v.73a.88.88 0 0 0 .886.887 1.57 1.57 0 0 0 1.564-1.565V2.452a.88.88 0 0 0-.886-.887h-.73c-.26 0-.47.104-.626.26s-.26.417-.26.626v1.096c0 .417-.365.783-.782.783s-.782-.365-.782-.783V2.452c0-.678.26-1.252.73-1.722S74.193 0 74.818 0h.73a2.45 2.45 0 0 1 2.45 2.452v34.6c.052 1.67-1.356 3.078-3.128 3.078zM37.696 78H3.128A3.14 3.14 0 0 1 0 74.87a2.45 2.45 0 0 1 2.45-2.452h.73c.417 0 .782.365.782.783s-.365.783-.782.783h-.73a.88.88 0 0 0-.886.887 1.57 1.57 0 0 0 1.564 1.565h34.568a.88.88 0 0 0 .886-.887v-.73c0-.26-.104-.47-.26-.626s-.417-.26-.626-.26H36.6c-.417 0-.782-.365-.782-.783s.365-.783.782-.783h1.095a2.36 2.36 0 0 1 1.72.73c.47.47.73 1.096.73 1.722v.73c-.05 1.408-1.095 2.45-2.45 2.45zM7.77 69.548c-.417 0-.782-.365-.782-.783V55.2c0-.417.365-.783.782-.783s.782.365.782.783v13.565c0 .417-.365.783-.782.783zm0-18.783c-.417 0-.782-.365-.782-.783v-3.13c0-.417.365-.783.782-.783s.782.365.782.783v3.13c0 .417-.365.783-.782.783zm6.203-18.417c-.2 0-.417-.052-.574-.2-.313-.313-.313-.783 0-1.096l9.593-9.6c.313-.313.782-.313 1.095 0s.313.783 0 1.096l-9.593 9.6c-.156.157-.365.2-.52.2zm13.243-13.304c-.2 0-.417-.052-.573-.2-.313-.313-.313-.783 0-1.096l2.242-2.243c.313-.313.782-.313 1.095 0s.313.783 0 1.096l-2.242 2.244c-.104.156-.313.2-.52.2z"/></svg>