<svg xmlns="http://www.w3.org/2000/svg" width="78" height="82" fill="#cee7ec"><path d="M53.686 31.32c-.653 0-1.25-.163-1.85-.5-1.795-1.033-2.393-3.317-1.36-5.1s3.318-2.393 5.113-1.36c.87.5 1.47 1.305 1.74 2.284s.1 1.957-.38 2.828a3.76 3.76 0 0 1-3.264 1.849zm-1.033-1.903c.98.598 2.284.218 2.883-.76.272-.5.38-1.033.218-1.577s-.5-.98-.98-1.25c-.98-.598-2.285-.218-2.883.76-.544.98-.218 2.23.762 2.828zm-38.51 41.436c-.653 0-1.306-.163-1.85-.5-.87-.5-1.47-1.305-1.74-2.284s-.1-1.958.38-2.828c1.033-1.794 3.318-2.393 5.113-1.36.87.5 1.47 1.305 1.74 2.284s.1 1.957-.38 2.828-1.305 1.468-2.285 1.74c-.326.054-.653.1-.98.1zm.054-5.818a2.1 2.1 0 0 0-1.795 1.033c-.272.5-.38 1.033-.218 1.577s.5.98.98 1.25 1.034.38 1.577.218.98-.5 1.25-.98.38-1.033.218-1.577-.5-.98-.98-1.25c-.326-.163-.707-.272-1.033-.272z"/><path d="M33.94 68.732c-11.803 0-21.43-9.625-21.43-21.424s9.628-21.424 21.43-21.424 21.43 9.625 21.43 21.424-9.628 21.424-21.43 21.424zm0-41.163c-10.88 0-19.8 8.863-19.8 19.793s8.866 19.793 19.8 19.793c10.88 0 19.8-8.863 19.8-19.793S44.82 27.57 33.94 27.57zm0 45.676c-14.25 0-25.9-11.582-25.9-25.883S19.636 21.48 33.94 21.48c14.25 0 25.9 11.582 25.9 25.883S48.2 73.246 33.94 73.246zm0-50.135c-13.38 0-24.26 10.875-24.26 24.252s10.88 24.252 24.26 24.252S58.2 60.74 58.2 47.362 47.322 23.1 33.94 23.1zm0 40.5c-8.975 0-16.264-7.286-16.264-16.26s7.3-16.26 16.264-16.26 16.264 7.286 16.264 16.26-7.3 16.26-16.264 16.26zm0-30.886c-8.05 0-14.632 6.58-14.632 14.627S25.9 62 33.94 62s14.632-6.58 14.632-14.627S42 32.736 33.94 32.736zm0 25.72a11.11 11.11 0 0 1-11.096-11.093c0-6.145 4.95-11.093 11.096-11.093a11.11 11.11 0 0 1 11.096 11.093A11.11 11.11 0 0 1 33.94 58.455zm0-20.554a9.47 9.47 0 0 0-9.464 9.462 9.47 9.47 0 0 0 9.464 9.462c5.22 0 9.465-4.24 9.465-9.46S39.163 37.9 33.94 37.9zm0 15.39c-3.264 0-5.93-2.664-5.93-5.927s2.665-5.927 5.93-5.927 5.93 2.664 5.93 5.927-2.665 5.927-5.93 5.927zm0-10.223a4.27 4.27 0 0 0-4.297 4.296 4.27 4.27 0 0 0 4.297 4.296 4.27 4.27 0 0 0 4.297-4.296 4.27 4.27 0 0 0-4.297-4.296zM.816 49.755A.8.8 0 0 1 0 48.939V47.2a44.62 44.62 0 0 1 13.435-31.212A44.8 44.8 0 0 1 44.983 3.1a.84.84 0 0 1 .816.816.84.84 0 0 1-.816.816c-23.444 0-42.916 19.086-43.35 42.523v1.63c0 .5-.326.87-.816.87z"/><path d="M33.94 82a33.64 33.64 0 0 1-23.716-9.68C3.862 66.176.218 57.857 0 48.94V47.2a.84.84 0 0 1 .816-.816.84.84 0 0 1 .816.816v1.63c.435 17.618 14.632 31.484 32.3 31.484 17.84 0 32.3-14.464 32.3-32.3a.84.84 0 0 1 .816-.816.84.84 0 0 1 .816.816C67.883 66.775 52.653 82 33.94 82zM71.962 4.73H45.038a.84.84 0 0 1-.816-.816.84.84 0 0 1 .816-.816h26.925a.84.84 0 0 1 .816.816.84.84 0 0 1-.816.816z"/><path d="M77.184 41.653h-5.276a.84.84 0 0 1-.816-.816V.816A.84.84 0 0 1 71.908 0h5.276A.84.84 0 0 1 78 .816v40.02a.8.8 0 0 1-.816.816zm-4.406-1.63h3.644V1.63h-3.644v38.4z"/><path d="M67.067 48.885a.84.84 0 0 1-.816-.816v-5.7a5.71 5.71 0 0 1 5.711-5.709.84.84 0 0 1 .816.816.84.84 0 0 1-.816.816 4.11 4.11 0 0 0-4.079 4.078v5.7a.8.8 0 0 1-.816.816zm-29.537-4.35c-.218 0-.435-.054-.598-.218a.79.79 0 0 1 0-1.142L51.02 29.092a.79.79 0 1 1 1.142 1.142L38.13 44.317c-.163.163-.38.218-.598.218zM16.2 65.905c-.218 0-.435-.054-.598-.218a.79.79 0 0 1 0-1.142L29.7 50.462a.79.79 0 1 1 1.142 1.142l-14.09 14.083a.83.83 0 0 1-.544.218zm37.476 4.948c-.653 0-1.25-.163-1.85-.5-1.795-1.033-2.393-3.317-1.36-5.1.5-.87 1.305-1.468 2.285-1.74s1.958-.1 2.83.38 1.47 1.305 1.74 2.284.1 1.957-.38 2.828a3.76 3.76 0 0 1-3.264 1.849zm.054-5.818c-.163 0-.38 0-.544.054-.544.163-.98.5-1.25.98-.598.98-.218 2.284.76 2.882s2.285.218 2.883-.76c.272-.5.38-1.033.217-1.577s-.5-.98-.98-1.25c-.38-.218-.76-.326-1.088-.326zM14.142 31.32c-.653 0-1.306-.163-1.85-.5-1.795-1.033-2.393-3.317-1.36-5.1.5-.87 1.305-1.468 2.284-1.74s1.958-.1 2.828.38 1.47 1.305 1.74 2.284.1 1.957-.38 2.828-1.305 1.468-2.285 1.74c-.326.054-.653.1-.98.1zm.054-5.818c-.163 0-.38 0-.544.054a2.06 2.06 0 0 0-1.251.979c-.598.98-.218 2.284.76 2.882.5.272 1.034.38 1.577.218a2.06 2.06 0 0 0 1.251-.979c.272-.5.38-1.033.218-1.577s-.5-.98-.98-1.25c-.326-.218-.707-.326-1.033-.326z"/><path d="M30.352 44.535c-.218 0-.435-.054-.598-.218l-14.09-14.084a.79.79 0 0 1 0-1.142.79.79 0 0 1 1.142 0l14.088 14.084a.79.79 0 0 1 0 1.142.78.78 0 0 1-.544.218zm21.322 21.37c-.218 0-.435-.054-.598-.218L36.987 51.55a.79.79 0 1 1 1.142-1.142L52.218 64.5a.79.79 0 0 1 0 1.142c-.163.163-.38.272-.544.272z"/></svg>