<svg xmlns="http://www.w3.org/2000/svg" width="78" height="78" fill="#cee7ec"><path d="M39 78C17.47 78 0 60.473 0 39S17.47 0 39 0s39 17.47 39 39-17.528 39-39 39zm0-76.3C18.43 1.7 1.7 18.43 1.7 39S18.43 76.3 39 76.3 76.3 59.57 76.3 39 59.57 1.7 39 1.7zM5.467 41.818c-.45 0-.845-.338-.845-.8-.056-.676-.056-1.353-.056-2.03A34.49 34.49 0 0 1 9.75 20.796c.225-.394.8-.507 1.184-.282s.507.8.282 1.183c-3.27 5.185-4.96 11.16-4.96 17.302 0 .62 0 1.296.056 1.916.056.507-.338.902-.845.902zm8.68-24.516c-.226 0-.395-.056-.564-.225-.338-.338-.394-.845-.056-1.183 1.916-2.142 4.114-4 6.538-5.636.395-.282.902-.17 1.183.226s.17.902-.225 1.184c-2.3 1.522-4.396 3.325-6.2 5.354-.226.17-.45.282-.676.282zM39 66.728c-15.273 0-27.728-12.455-27.728-27.728S23.727 11.272 39 11.272 66.728 23.727 66.728 39 54.273 66.728 39 66.728zm0-53.766C24.63 12.962 12.962 24.63 12.962 39S24.63 65.038 39 65.038 65.038 53.37 65.038 39 53.37 12.962 39 12.962zm0 35.394a9.43 9.43 0 0 1-9.412-9.412c0-5.185 4.227-9.355 9.412-9.355A9.43 9.43 0 0 1 48.412 39c0 5.185-4.227 9.356-9.412 9.356zm0-17.077c-4.227 0-7.72 3.438-7.72 7.72s3.438 7.72 7.72 7.72c4.227 0 7.72-3.438 7.72-7.72s-3.494-7.72-7.72-7.72z"/><path d="M43.847 32.8h-.17a.84.84 0 0 1-.62-1.015c1.184-5.24 2.198-13.3.733-14.766-.113-.113-.845-.676-3.9-.395-5.298.507-11.892 2.874-12.737 3.776.17 3.776 6.707 8.34 9.243 9.806.395.225.564.733.338 1.127s-.733.564-1.127.338c-.507-.17-10.2-5.748-10.2-11.328 0-.902.902-1.634 3.156-2.536 3.663-1.522 13.977-4.34 16.344-1.916 2.65 2.65.225 14.033-.282 16.287-.056.338-.395.62-.8.62zm-25.08 13.583c-.62 0-1.183-.056-1.747-.282-.845-.282-1.24-1.353-1.465-3.776-.338-3.945.17-14.597 3.212-16.175 3.325-1.7 13.413 4.114 15.442 5.298.395.225.507.733.282 1.184-.225.395-.733.507-1.184.282-4.62-2.762-11.948-6.2-13.808-5.24-.17.056-.902.564-1.578 3.55-1.184 5.185-.958 12.174-.338 13.3 3.663 1.014 10.032-3.776 12.173-5.748a.838.838 0 1 1 1.127 1.24c-.17.338-6.876 6.37-12.117 6.37zM37.422 62.67c-.62 0-1.465-.113-2.536-.394-3.9-.958-13.808-4.678-14.37-8.06-.564-3.663 8.06-11.497 9.806-13.02.338-.282.902-.282 1.184.056s.282.902-.056 1.184c-4.058 3.55-9.58 9.468-9.243 11.497 0 .17.282 1.014 2.93 2.593 4.565 2.705 11.272 4.678 12.568 4.396 2.085-3.156-.507-10.708-1.7-13.357-.17-.45 0-.902.45-1.127.45-.17.902 0 1.127.45.17.45 4.734 10.652 1.465 15.16-.338.394-.845.62-1.634.62zm10.708-1.408h-.338c-3.663-.564-8.454-11.215-9.355-13.357-.17-.45 0-.902.45-1.127.45-.17.902 0 1.127.45 2.142 4.96 6.03 12.06 8.06 12.343.17 0 1.07.056 3.38-1.972 4.002-3.494 7.947-9.3 8.06-10.595-2.367-2.987-10.314-2.818-13.244-2.536-.45.056-.902-.282-.958-.733s.282-.902.733-.958 11.6-1.184 14.88 3.325c.507.733.225 1.86-1.07 3.945-1.973 3.325-8.285 11.215-11.723 11.215z"/><path d="M47.172 42.27c-.45 0-.79-.338-.845-.79s.282-.902.79-.902c5.354-.507 13.3-2.03 14.26-3.832.056-.17.395-1.014-.845-3.776-2.142-4.903-6.425-10.426-7.552-11-3.55 1.353-5.86 8.96-6.48 11.835-.113.45-.564.733-1.014.676-.45-.113-.733-.564-.676-1.014.113-.45 2.423-11.384 7.777-13.13.845-.282 1.803.394 3.382 2.198 2.592 3.043 8.454 11.948 6.876 14.935-1.69 3.325-13.3 4.565-15.61 4.79h-.056z"/></svg>