<svg xmlns="http://www.w3.org/2000/svg" width="78" height="78" fill="#cee7ec"><path d="M39 78C17.52 78 0 60.493 0 38.974 0 17.507 17.52 0 39 0c21.533 0 39 17.507 39 38.974C78.052 60.493 60.533 78 39 78zm0-76.437c-20.647 0-37.436 16.778-37.436 37.4S18.353 76.385 39 76.385s37.436-16.778 37.436-37.4C76.488 18.34 59.647 1.563 39 1.563zM29.824 64.6c-.104 0-.156 0-.26-.052-2.66-1-5.1-2.345-7.352-4.116-.365-.26-.417-.782-.156-1.094a.77.77 0 0 1 1.095-.156 23.86 23.86 0 0 0 6.935 3.856.76.76 0 0 1 .47 1c-.104.365-.417.573-.73.573zM39 10.265a3.55 3.55 0 0 1-3.545-3.543c0-1.928 1.616-3.595 3.545-3.595a3.55 3.55 0 0 1 3.546 3.543c0 1.928-1.564 3.595-3.546 3.595zM39 4.7a1.98 1.98 0 1 0 0 3.96 1.98 1.98 0 1 0 0-3.96zm28 54.03a3.61 3.61 0 0 1-1.773-.469c-1.72-1-2.294-3.178-1.303-4.846.47-.834 1.25-1.407 2.138-1.667.938-.26 1.877-.104 2.7.365s1.408 1.25 1.668 2.136c.26.938.104 1.876-.365 2.7a3.57 3.57 0 0 1-3.076 1.772zm-1-1.824a1.97 1.97 0 0 0 2.71-.73c.26-.47.313-1 .2-1.5-.156-.52-.47-.938-.94-1.198s-1-.365-1.512-.208-.938.47-1.2.938c-.574.886-.2 2.136.73 2.7zM11.054 58.72c-1.25 0-2.45-.625-3.076-1.772-.47-.834-.626-1.77-.365-2.7a3.44 3.44 0 0 1 1.668-2.136c.834-.47 1.773-.625 2.7-.365s1.668.834 2.138 1.667c1 1.72.417 3.908-1.303 4.846a3.76 3.76 0 0 1-1.773.47zM11 53.146c-.365 0-.678.104-1 .26-.47.26-.782.677-.94 1.198s-.052 1.042.2 1.5c.574.938 1.773 1.303 2.7.73s1.303-1.772.73-2.7c-.26-.47-.678-.782-1.2-.938-.156-.052-.313-.052-.52-.052zm42.6-33.45H24.036c-.73 0-1.408-.47-1.616-1.198s.052-1.46.678-1.928c4.588-3.178 9.96-4.898 15.6-4.898h.365c5.63 0 11 1.667 15.6 4.898.626.417.886 1.198.678 1.928-.313.73-.94 1.198-1.72 1.198zm-14.964-6.4c-5.266 0-10.376 1.563-14.703 4.585-.052.052-.052.104-.052.156s.052.104.157.104H53.6c.052 0 .104-.052.157-.104 0-.052 0-.104-.052-.156-4.328-3.022-9.385-4.585-14.65-4.585h-.417zm18.352 12.82h-36.34a3.21 3.21 0 0 1-2.92-1.876 3.11 3.11 0 0 1 .521-3.387l.052-.052c.313-.313.782-.313 1.095 0a.79.79 0 0 1 .104.99c0 .052-.052.052-.052.104a1.6 1.6 0 0 0-.261 1.719c.26.573.834.938 1.46.938h36.34c.626 0 1.2-.365 1.46-.938a1.6 1.6 0 0 0-.261-1.719c-.313-.313-.26-.834.052-1.094.313-.313.834-.26 1.095.052.834.938 1.043 2.293.52 3.387-.47 1.146-1.616 1.876-2.868 1.876zm3.492 6.41H17.154c-1.25 0-2.346-.625-3.024-1.667s-.73-2.293-.2-3.44a.82.82 0 0 1 .73-.47c.417 0 .782.365.782.782 0 .104-.052.2-.052.313-.313.625-.26 1.355.104 1.928s1 .938 1.72.938H60.48c.678 0 1.303-.365 1.72-.938.365-.573.417-1.303.104-1.928 0-.052-.052-.052-.052-.104-.156-.417.104-.834.47-1 .365-.104.782.052.94.417.52 1.094.47 2.397-.2 3.44-.573 1.146-1.72 1.72-2.972 1.72z"/><path d="M61.785 38.974H15.902c-1.25 0-2.398-.52-3.18-1.5-.782-.938-1.095-2.188-.886-3.387.104-.417.47-.73.886-.625s.73.47.626.886c-.156.782.052 1.5.573 2.136a2.58 2.58 0 0 0 1.981.938h45.882a2.58 2.58 0 0 0 1.981-.938c.47-.573.678-1.355.574-2.136-.104-.417.2-.834.626-.886.417-.104.834.208.886.625a4.18 4.18 0 0 1-.886 3.387c-.782.938-1.98 1.5-3.18 1.5zm.155 6.41H15.694c-2.242 0-4.015-1.667-4.223-3.856 0-.26-.052-.573-.052-.834 0-.417.313-.782.73-.834.417 0 .782.313.834.73 0 .26.052.52.052.782.104 1.407 1.303 2.45 2.66 2.45H61.94a2.63 2.63 0 0 0 2.659-2.449c0-.26.052-.52.052-.782 0-.417.417-.782.834-.73.417 0 .782.417.73.834 0 .26-.052.573-.052.834-.156 2.188-1.98 3.856-4.223 3.856zm-1.5 6.41H17.26c-1.773 0-3.285-1.042-3.963-2.657l-.678-1.876c-.156-.417.104-.834.52-1s.834.104 1 .52l.626 1.72c.417 1.042 1.408 1.72 2.503 1.72h43.12c1.095 0 2.086-.677 2.503-1.72l.626-1.72c.104-.417.574-.625 1-.52.417.156.626.573.52 1l-.678 1.876c-.626 1.615-2.2 2.657-3.9 2.657zm-3.9 6.408H21.17c-1.25 0-2.398-.52-3.233-1.5-.782-.886-1.512-1.876-2.138-2.866-.26-.365-.156-.834.2-1.094s.834-.156 1.095.208c.626.938 1.303 1.824 2.033 2.7.52.573 1.25.938 2.033.938h35.35c.782 0 1.512-.365 2.033-.938.73-.834 1.408-1.772 2.034-2.7.26-.365.73-.47 1.095-.208s.47.73.2 1.094c-.626 1-1.356 1.928-2.138 2.866a4.12 4.12 0 0 1-3.233 1.51zm-9.75 6.4H31.23c-1.147 0-2.242-.26-3.285-.677-2.033-.886-4.015-2.084-5.787-3.44-.365-.26-.417-.782-.156-1.094a.77.77 0 0 1 1.095-.156c1.668 1.303 3.493 2.397 5.422 3.283a6.58 6.58 0 0 0 2.66.573h15.537a6.78 6.78 0 0 0 2.659-.573 23.17 23.17 0 0 0 5.422-3.283c.365-.26.834-.208 1.095.156s.2.834-.157 1.094a24.97 24.97 0 0 1-5.787 3.439c-.886.47-2.033.677-3.18.677z"/></svg>