<svg xmlns="http://www.w3.org/2000/svg" width="82" height="82" fill="#cee7ec"><path d="M81.18 82H.85a.84.84 0 0 1-.82-.82V.85A.84.84 0 0 1 .85.03h80.33a.84.84 0 0 1 .82.82v80.33a.84.84 0 0 1-.82.82zm-79.5-1.643h78.687V1.67H1.67v78.687zm71.295-6.57H9.062a.84.84 0 0 1-.82-.82V9.062a.84.84 0 0 1 .82-.82h63.902a.84.84 0 0 1 .82.82v63.902a.84.84 0 0 1-.82.82zm-63.08-1.643h62.26V9.884H9.884v62.26zm54.865-6.57H17.276a.84.84 0 0 1-.82-.82V17.276a.84.84 0 0 1 .82-.82H64.75a.84.84 0 0 1 .82.82V64.75a.84.84 0 0 1-.82.82zM18.098 63.93H63.93V18.098H18.098V63.93zm38.44-6.57H25.5a.84.84 0 0 1-.82-.82V25.5a.84.84 0 0 1 .82-.82h31.048a.84.84 0 0 1 .82.82v31.048a.84.84 0 0 1-.82.82zM26.3 55.716h29.405V26.3H26.3v29.405zm22.014-6.57h-14.62a.84.84 0 0 1-.82-.82v-14.62a.84.84 0 0 1 .82-.82h14.62a.84.84 0 0 1 .82.82v14.62a.84.84 0 0 1-.82.82zm-13.8-1.643h12.978V34.525H34.525v12.978z"/><path d="M81.18 82c-.22 0-.438-.055-.602-.22L47.722 48.926c-.328-.328-.328-.82 0-1.15a.79.79 0 0 1 1.15 0L81.726 80.63a.79.79 0 0 1 0 1.15c-.164.1-.33.22-.548.22zM33.704 34.525c-.274 0-.493-.1-.602-.274l-8.214-8.16L.246 1.45a.99.99 0 0 1 0-1.205c.274-.33.82-.33 1.15 0L34.25 33.1c.164.164.22.383.22.602.055.438-.33.82-.767.82zM.85 82c-.22 0-.438-.055-.602-.22a.79.79 0 0 1 0-1.15L33.1 47.776c.164-.164.383-.274.602-.274a.84.84 0 0 1 .82.82c0 .22-.1.438-.22.602L1.45 81.78c-.164.1-.383.22-.602.22zm47.474-47.475c-.22 0-.438-.055-.602-.22-.328-.328-.328-.82 0-1.15L80.576.3a.79.79 0 0 1 1.15 0 .79.79 0 0 1 0 1.15L48.872 34.306c-.164.164-.33.22-.548.22z"/></svg>