<svg xmlns="http://www.w3.org/2000/svg" width="24" height="24" fill="none"><path d="M24 17.11v3.188c0 2.068-1.682 3.75-3.75 3.75H3.75c-2.068 0-3.75-1.682-3.75-3.75V17.11a.94.94 0 0 1 .938-.937.94.94 0 0 1 .938.938v3.188a1.88 1.88 0 0 0 1.875 1.875h16.5a1.88 1.88 0 0 0 1.875-1.875V17.11a.94.94 0 0 1 .938-.937.94.94 0 0 1 .938.938zm-13.945 2.36a2.79 2.79 0 0 0 1.992.829 2.79 2.79 0 0 0 1.992-.829l4.27-4.295a1.83 1.83 0 0 0 .392-1.999 1.82 1.82 0 0 0-1.686-1.127h-1.03a.94.94 0 0 0-.937.938.94.94 0 0 0 .938.938h.924l-4.2 4.224c-.177.178-.412.276-.662.276a.93.93 0 0 1-.663-.276l-4.2-4.224h3.924a1.88 1.88 0 0 0 1.875-1.875V.984a.94.94 0 0 0-.937-.937.94.94 0 0 0-.937.938v11.062H7.08a1.82 1.82 0 0 0-1.686 1.127 1.83 1.83 0 0 0 .392 1.999l4.27 4.295z" fill="#fff"/></svg>