<svg xmlns="http://www.w3.org/2000/svg" width="45" height="45" fill="none"><path d="M4.916 31.968l11.08-2.914v-4.532c-2.1-1.822-3.428-4.51-3.428-7.5V6.592A6.6 6.6 0 0 1 19.16 0h6.68a6.6 6.6 0 0 1 6.592 6.592v10.43c0 2.99-1.33 5.677-3.428 7.5v4.532l11.08 2.914A6.51 6.51 0 0 1 45 38.343v5.34A1.32 1.32 0 0 1 43.682 45a1.32 1.32 0 0 1-1.318-1.318v-5.34c0-1.824-1.185-3.36-2.95-3.825l-.566-.15v9.312a1.32 1.32 0 0 1-1.318 1.318 1.32 1.32 0 0 1-1.318-1.318V33.676l-2.637-.693v5.953a1.32 1.32 0 0 1-1.318 1.318H12.744a1.32 1.32 0 0 1-1.318-1.318v-5.953l-2.637.693V43.68a1.32 1.32 0 0 1-1.318 1.318 1.32 1.32 0 0 1-1.318-1.318V34.37l-.566.15c-1.764.464-2.95 2-2.95 3.825v5.34A1.32 1.32 0 0 1 1.318 45 1.32 1.32 0 0 1 0 43.682v-5.34a6.51 6.51 0 0 1 4.915-6.375zm24.88-25.376a3.96 3.96 0 0 0-3.955-3.955h-6.68a3.96 3.96 0 0 0-3.955 3.955v1.645c2.627-.833 4.982-1.226 7.297-1.226s4.67.393 7.293 1.226V6.592zm-13.962 4.212l1.624 2.785c1.338-.67 3.07-1.303 5.045-1.303s3.707.634 5.044 1.303l1.624-2.785c-2.432-.786-4.58-1.157-6.668-1.157s-4.236.37-6.67 1.157zm13.962 6.218v-2.056l-.618 1.06a1.32 1.32 0 0 1-.806.61c-.33.086-.7.037-1-.14-1.148-.675-2.9-1.573-4.868-1.574s-3.722.898-4.87 1.574a1.32 1.32 0 0 1-1.808-.473l-.62-1.062v2.06c0 4.022 3.272 7.295 7.295 7.295s7.295-3.272 7.295-7.295zM18.633 26.17v3.824c1.044 1.007 2.443 1.578 3.904 1.578a5.61 5.61 0 0 0 3.83-1.507V26.17c-1.19.505-2.496.784-3.867.784s-2.678-.28-3.867-.784zm-4.57 11.447h16.875V32.29l-2.424-.638c-1.556 1.63-3.706 2.558-5.976 2.558s-4.435-.935-5.99-2.573l-2.484.653v5.328z" fill="#3a5a61"/></svg>