<svg xmlns="http://www.w3.org/2000/svg" xmlns:xlink="http://www.w3.org/1999/xlink" width="45" height="45" fill="none"><g fill="#3a5a61"><path d="M44.286 41.07A3.93 3.93 0 0 1 40.357 45H3.93A3.93 3.93 0 0 1 0 41.071V3.93A3.93 3.93 0 0 1 3.929 0h36.43a3.93 3.93 0 0 1 3.928 3.929v37.14zM42.143 3.93c0-.986-.8-1.786-1.786-1.786H3.93c-.986 0-1.786.8-1.786 1.786v37.14c0 .986.8 1.786 1.786 1.786h36.43c.986 0 1.786-.8 1.786-1.786V3.93zM22.208 28.573a5.49 5.49 0 0 1-5.485-5.484c0-3.024 2.46-5.485 5.485-5.485a5.49 5.49 0 0 1 5.484 5.485 5.49 5.49 0 0 1-5.484 5.484zm0-8.826c-1.843 0-3.342 1.5-3.342 3.342s1.5 3.34 3.342 3.34a3.35 3.35 0 0 0 3.342-3.34 3.35 3.35 0 0 0-3.342-3.342zm0 13.736a10.41 10.41 0 0 1-10.395-10.394 10.41 10.41 0 0 1 10.395-10.395 10.41 10.41 0 0 1 10.394 10.395 10.41 10.41 0 0 1-10.394 10.394zm0-18.647c-4.55 0-8.252 3.702-8.252 8.252s3.702 8.25 8.252 8.25a8.26 8.26 0 0 0 8.25-8.25c0-4.55-3.7-8.252-8.25-8.252zm0 22.86C14.153 37.696 7.6 31.143 7.6 23.1s6.553-14.6 14.608-14.6 14.606 6.553 14.606 14.608-6.553 14.607-14.606 14.607zm0-27.07A12.48 12.48 0 0 0 9.744 23.09a12.48 12.48 0 0 0 12.464 12.464A12.48 12.48 0 0 0 34.672 23.09a12.48 12.48 0 0 0-12.464-12.464z"/><path d="M35.41 24.286H8.98a1.07 1.07 0 1 1 0-2.143h26.43a1.07 1.07 0 1 1 0 2.143z"/><path d="M21.786 37.5a1.07 1.07 0 0 1-1.071-1.071V10a1.07 1.07 0 1 1 2.143 0v26.43a1.07 1.07 0 0 1-1.072 1.071z"/><use xlink:href="#B"/><use xlink:href="#B" x="-4.434"/><path d="M30.47 39.95a1.48 1.48 0 0 1-1.479 1.478 1.48 1.48 0 0 1-1.478-1.478 1.48 1.48 0 0 1 1.478-1.478 1.48 1.48 0 0 1 1.479 1.478zM9.695 41.43H5.4a1.072 1.072 0 0 1 0-2.143h4.286a1.072 1.072 0 1 1 0 2.143z"/></g><defs ><path id="B" d="M40.076 39.95a1.48 1.48 0 0 1-1.478 1.478 1.48 1.48 0 0 1-1.478-1.478 1.48 1.48 0 0 1 1.478-1.478 1.48 1.48 0 0 1 1.478 1.478z"/></defs></svg>