<svg xmlns="http://www.w3.org/2000/svg" width="63" height="58" fill="none"><path d="M13.25 25.1h-5.9l.75-10.8h15.65V11H5L3.75 28.5h9.5c4.55 0 8.25 2.5 8.25 7.35s-3.7 7.35-8.25 7.35c-4 0-7.3-1.9-8.3-5.75L2 39.15c1.55 4.95 6.2 7.45 11.25 7.45C19.4 46.6 25 42.8 25 35.85S19.4 25.1 13.25 25.1zm26.514 21.5c8.55 0 13.25-7.3 13.25-18.1s-4.7-18.1-13.25-18.1-13.25 7.3-13.25 18.1 4.7 18.1 13.25 18.1zm0-3.4c-6.15 0-9.75-5.35-9.75-14.7s3.6-14.7 9.75-14.7 9.75 5.35 9.75 14.7-3.6 14.7-9.75 14.7z" fill="#3a5a61"/><path d="M44.248 23.926c-2.778-2.084 18.753 0 18.753 0v11.807H44.248c1.736-1.39 2.778-9.723 0-11.807z" fill="#c4c4c4"/><path fill="#d20909" d="M44.942 23.926H63v3.936H44.942z"/><path fill="#fff" d="M44.942 27.862H63v3.936H44.942z"/><path fill="#d20909" d="M44.942 31.798H63v3.936H44.942z"/></svg>