<svg xmlns="http://www.w3.org/2000/svg" width="56" height="76" fill="#3a5a61"><path d="M49.512 52.755c-1.2-.77-2.167-1.133-2.395-1.214l-6.964-2.863-4.9-3.196a1.22 1.22 0 0 0-.146-.08v-2.07c3.707-1.826 6.393-5.376 6.973-9.58 3-.24 5.348-2.713 5.348-5.722 0-1.5-.578-2.847-1.523-3.87V16.8C45.895 7.542 38.25 0 28.852 0h-1.32c-9.397 0-17.04 7.542-17.04 16.812v7.267A5.68 5.68 0 0 0 8.89 28.03c0 3 2.36 5.483 5.348 5.722.58 4.204 3.266 7.754 6.973 9.58v1.937l-5.118 3.33a1.19 1.19 0 0 0-.206.063l-7.002 2.88c-.35.124-2.408.904-4.45 2.807C2.4 56.232 0 59.62 0 65.072v9.72C0 75.46.547 76 1.223 76h14.45c.676 0 1.223-.54 1.223-1.207s-.547-1.207-1.223-1.207h-3.768V64.63c0-.666-.547-1.207-1.223-1.207s-1.223.54-1.223 1.207v8.956h-7v-8.514c0-8.693 6.973-11.162 7.266-11.26a1.28 1.28 0 0 0 .081-.03l5.833-2.398 6.305 22.203H19.5c-.676 0-1.223.54-1.223 1.207S18.825 76 19.5 76h35.276c.676 0 1.223-.543 1.223-1.2v-9.718c0-7.102-4.065-10.765-6.488-12.317zm-11.335-2.47l-3.684 7.47-4.57-3.318 4.832-4.948a1.19 1.19 0 0 0 .33-.993 1.27 1.27 0 0 0 .01-.153v-.063l3.08 2.005zm-7.432 7.745l-.96 2.525H26.5l-1.08-2.546 2.654-1.927 2.683 1.948zm-7.107-9.485c.01-.066.02-.133.02-.203v-4.1a12.93 12.93 0 0 0 3.243.412h2.508a12.92 12.92 0 0 0 3.243-.412v3.923l-4.554 4.663-4.458-4.283zM44.97 28.03c0 1.636-1.203 2.997-2.78 3.275v-6.55c1.578.278 2.78 1.64 2.78 3.275zm-30.854 3.275c-1.578-.278-2.78-1.64-2.78-3.275s1.203-2.997 2.78-3.275v6.55zm1.228-10.178c-.047 0-.1.002-.13.006-.013.001-.025.004-.038.006-.028.004-.056.007-.083.013-.018.004-.034.01-.052.013s-.044.01-.065.017l-.058.02c-.018.006-.036.012-.054.02l-.065.03c-.014.007-.028.013-.042.02-.02.01-.04.024-.062.037-.013.008-.027.015-.04.024-.02.013-.037.027-.056.04-.012.01-.026.018-.038.028s-.032.028-.048.043-.027.023-.04.035-.028.03-.042.046-.025.026-.037.04-.024.032-.036.048l-.034.045c-.01.015-.02.032-.03.048s-.022.034-.032.052-.016.032-.024.048-.02.037-.028.057-.012.032-.018.048-.016.04-.023.062c-.005.016-.01.033-.013.05-.006.022-.012.043-.017.066s-.005.036-.008.053-.008.044-.01.066-.002.038-.003.057l-.003.052c-.407.04-.802.124-1.18.244v-5.747c0-7.94 6.547-14.398 14.595-14.398h1.32c8.05 0 14.596 6.46 14.596 14.398v5.774a5.84 5.84 0 0 0-1.259-.27 1.02 1.02 0 0 0-.005-.094l-.006-.047-.01-.07c-.004-.024-.008-.038-.013-.057l-.014-.056a1.09 1.09 0 0 0-.021-.063c-.006-.015-.01-.03-.017-.046l-.03-.065-.02-.04a1.5 1.5 0 0 0-.035-.062l-.025-.04a1.15 1.15 0 0 0-.038-.054l-.032-.04c-.013-.016-.026-.03-.04-.046s-.026-.03-.04-.043l-.04-.038a1.19 1.19 0 0 0-.047-.043c-.013-.01-.027-.022-.04-.032l-.052-.04c-.018-.014-.03-.02-.046-.03s-.035-.022-.053-.032-.037-.02-.055-.028-.033-.016-.05-.024a.82.82 0 0 0-.068-.026c-.015-.005-.03-.01-.044-.016a1.15 1.15 0 0 0-.077-.021c-.01-.003-.022-.006-.033-.01-4.787-1.074-6.23-7.022-6.245-7.08-.106-.462-.477-.82-.948-.916a1.23 1.23 0 0 0-1.236.475c-5.44 7.42-17.27 7.5-17.462 7.5zm1.218 10.918v-8.547c3.127-.2 11.437-1.216 16.782-6.735.922 2.14 2.83 5.264 6.398 6.478v8.804c0 5.622-4.637 10.196-10.336 10.196H26.9c-5.7 0-10.336-4.574-10.336-10.196zM21.2 48.16v.183a1.17 1.17 0 0 0 .058.366c-.134.42-.03.9.312 1.228l4.657 4.474-4.606 3.344-3.684-7.47 3.264-2.125zm2.012 21.027l-2.4-8.448c.02.006.038.013.057.017a1.27 1.27 0 0 0 .293.035 1.23 1.23 0 0 0 .725-.235l1.483-1.076 1.032 2.43-1.2 7.277zm1.758 4.4l1.737-10.62H29.6l1.737 10.62H24.98zm6.9-11.702l.902-2.37 1.433 1.04c.212.154.467.235.725.235a1.17 1.17 0 0 0 .293-.035 1.38 1.38 0 0 0 .288-.11l-2.44 8.588-1.202-7.348zm21.663 11.702H46.53V64.63c0-.667-.547-1.207-1.223-1.207s-1.223.54-1.223 1.207v8.956h-9.7l6.27-22.082 5.54 2.277a1.24 1.24 0 0 0 .077.029c.008.003.826.284 1.896.97 2.452 1.57 5.374 4.63 5.374 10.294v8.514zm-23.96-40.44c.676 0 1.223-.54 1.223-1.207s-.548-1.207-1.223-1.207h-.903V27.94c0-.666-.547-1.207-1.223-1.207s-1.223.54-1.223 1.207v4c0 .666.547 1.207 1.223 1.207h2.126z"/></svg>