<svg xmlns="http://www.w3.org/2000/svg" width="22" height="22" fill="#cee7ec"><path d="M11 7.792c-1.77 0-3.208 1.44-3.208 3.208S9.23 14.208 11 14.208s3.208-1.44 3.208-3.208S12.77 7.792 11 7.792zm0 4.583c-.758 0-1.375-.617-1.375-1.375S10.242 9.625 11 9.625s1.375.617 1.375 1.375-.617 1.375-1.375 1.375zm10.083-2.292h-1.887c-.424-3.817-3.462-6.855-7.28-7.28V.917C11.917.4 11.506 0 11 0s-.917.4-.917.917v1.887c-3.817.424-6.855 3.462-7.28 7.28H.917c-.506 0-.917.4-.917.917s.4.917.917.917h1.887c.424 3.817 3.462 6.855 7.28 7.28v1.887c0 .506.4.917.917.917s.917-.4.917-.917v-1.887c3.817-.424 6.855-3.462 7.28-7.28h1.887c.506 0 .917-.4.917-.917s-.4-.917-.917-.917zM11 17.417c-3.538 0-6.417-2.878-6.417-6.417S7.462 4.583 11 4.583s6.417 2.88 6.417 6.417-2.88 6.417-6.417 6.417z"/></svg>