<svg xmlns="http://www.w3.org/2000/svg" width="25" height="23" fill="none"><path d="M.29 14.88l.125-.382 2.384-.6-.02-.645c0-2.747 1.194-5.37 3.275-7.192l.97 1.083c-1.768 1.55-2.782 3.775-2.782 6.11l.005.287 1.548-.383c.022-1.502.563-2.96 1.53-4.118l1.13.922c-.672.804-1.08 1.795-1.175 2.83l1.578-.4c.17-.71.55-1.344 1.07-1.83l-2.398-8.27.27-.298C8.96.733 10.673 0 12.495 0s3.534.733 4.697 2l.27.298-.676 2.332a9.75 9.75 0 0 1 1.523.925 9.69 9.69 0 0 1 3.466 4.841l-1.398.43c-.665-2.115-2.126-3.802-4-4.784l-.442 1.526c.576.34 1.103.768 1.56 1.272l-1.092.964c-.267-.296-.566-.558-.89-.782l-.45 1.547c.517.484.896 1.113 1.067 1.82l1.58.387c-.054-.598-.212-1.174-.47-1.72l1.326-.615a6.5 6.5 0 0 1 .631 2.698l5.383 1.317.126.38c.54 1.633.33 3.465-.58 5.027s-2.404 2.663-4.103 3.023l-.397.084-1.71-1.744a9.79 9.79 0 0 1-5.421 1.633 9.89 9.89 0 0 1-1.991-.202l.3-1.417c.553.114 1.12.17 1.692.17a8.29 8.29 0 0 0 4.379-1.248l-1.108-1.13c-.968.538-2.084.844-3.27.844V18.44a5.25 5.25 0 0 0 2.206-.482l-1.132-1.154a3.76 3.76 0 0 1-1.074.156 3.75 3.75 0 0 1-1.065-.153L5.4 23l-.397-.083c-1.7-.355-3.2-1.453-4.112-3.012s-1.128-3.4-.592-5.025zm9.803 1.214a3.69 3.69 0 0 1-1.28-2.182l-7.235 1.8c-.264 1.146-.063 2.393.572 3.478s1.628 1.878 2.765 2.223l5.178-5.31zM15.827 2.7c-.872-.8-2.064-1.253-3.33-1.253s-2.46.453-3.33 1.253l2.055 7.088a3.75 3.75 0 0 1 2.553 0L15.827 2.7zM20.1 21.383c1.136-.348 2.127-1.144 2.76-2.23s.83-2.333.562-3.48l-7.24-1.77c-.154.87-.618 1.638-1.274 2.185l5.193 5.295zm-5.327-8.12c0-1.24-1.02-2.25-2.276-2.25s-2.276 1.01-2.276 2.25 1.02 2.25 2.276 2.25 2.276-1.01 2.276-2.25z" fill="#cee7ec"/></svg>