<svg xmlns="http://www.w3.org/2000/svg" width="72" height="80" fill="#3a5a61"><path d="M65.333 10.667H50.667V1.333c0-.354-.14-.693-.4-.943s-.6-.4-.943-.4H22.667c-.354 0-.693.14-.943.4s-.4.6-.4.943v9.333H6.667a1.3 1.3 0 0 0-.943.4c-.25.26-.4.6-.4.943v57.333h-4c-.354 0-.693.14-.943.4s-.4.6-.4.943v4a5.33 5.33 0 0 0 1.562 3.77c1 1 2.357 1.555 3.77 1.555h56a5.33 5.33 0 0 0 3.77-1.562c1-1 1.562-2.357 1.562-3.77V12c0-.354-.14-.693-.4-.943s-.6-.4-.943-.4zM24 2.667h24v18.667H24V2.667zM5.333 77.333c-.707 0-1.386-.28-1.886-.78s-.78-1.178-.78-1.886V72H56v2.667c-.001.936.246 1.857.716 2.667H5.333zM64 74.667a2.67 2.67 0 0 1-.78 1.886 2.66 2.66 0 0 1-1.886.78c-.708 0-1.386-.28-1.886-.78s-.78-1.178-.78-1.886v-4c0-.354-.14-.693-.4-.943s-.6-.4-.943-.4H8v-56h13.333v9.333c0 .354.14.693.4.943s.6.4.943.4h12v4h-12a1.3 1.3 0 0 0-.943.4c-.25.26-.4.6-.4.943v4H24v-2.667h24v2.667h2.667v-4c0-.354-.14-.693-.4-.943s-.6-.4-.943-.4h-12v-4h12a1.3 1.3 0 0 0 .943-.4c.25-.26.4-.6.4-.943v-9.333H64v61.333zM29.333 5.333h-2.667V8h2.667V5.333zm16 0H32V8h13.333V5.333zm0 5.334H26.667v2.667h18.667v-2.667zm0 5.333H26.667v2.667h18.667V16zM32 36H13.333c-.354 0-.693.14-.943.4s-.4.6-.4.943V48a1.3 1.3 0 0 0 .4.943c.26.25.6.4.943.4h8V52h-8c-.354 0-.693.14-.943.4s-.4.6-.4.943V64a1.3 1.3 0 0 0 .4.943c.26.25.6.4.943.4H32a1.3 1.3 0 0 0 .943-.4c.25-.26.4-.6.4-.943V53.333c0-.354-.14-.693-.4-.943s-.59-.4-.943-.4h-8v-2.667h8c.354 0 .693-.14.943-.4s.4-.6.4-.943V37.333c0-.354-.14-.693-.4-.943s-.59-.4-.943-.4zm-1.333 26.667h-16v-8h16v8zm0-16h-16v-8h16v8zM20 41.333h-2.667V44H20v-2.667zm8 0h-5.333V44H28v-2.667zm-8 16h-2.667V60H20v-2.667zm8 0h-5.333V60H28v-2.667zM40 36c-.354 0-.693.14-.943.4s-.4.6-.4.943V48c0 .354.14.693.4.943s.6.4.943.4h8V52h-8c-.354 0-.693.14-.943.4s-.4.6-.4.943V64c0 .354.14.693.4.943s.6.4.943.4h18.667a1.3 1.3 0 0 0 .943-.4c.25-.26.4-.6.4-.943V53.333c0-.354-.14-.693-.4-.943s-.6-.4-.943-.4h-8v-2.667h8c.354 0 .693-.14.943-.4s.4-.6.4-.943V37.333c0-.354-.14-.693-.4-.943s-.6-.4-.943-.4H40zm17.333 26.667h-16v-8h16v8zm0-16h-16v-8h16v8zm-10.666-5.334H44V44h2.667v-2.667zm8 0h-5.333V44h5.333v-2.667zm-8 16H44V60h2.667v-2.667zm8 0h-5.333V60h5.333v-2.667zm-52-40H0v32h2.667v-32zM72 30.667h-2.667v34.667H72V30.667zM72 68h-2.667v2.667H72V68z"/></svg>