<svg xmlns="http://www.w3.org/2000/svg" width="85" height="85" fill="#3a5a61"><path d="M.187 7.8l5.665 9.912c.2.335.5.577.885.67l5.285 1.32L30.147 37.82l2.003-2.002L13.74 17.4a1.41 1.41 0 0 0-.657-.373l-5.078-1.274L3.182 7.32l4.135-4.135 8.448 4.827L17.04 13.1a1.41 1.41 0 0 0 .372.658l18.4 18.4 2.002-2.003L19.698 12.03l-1.32-5.282a1.42 1.42 0 0 0-.671-.887L7.793.197a1.42 1.42 0 0 0-1.7.228L.43 6.1c-.456.448-.555 1.145-.242 1.702zM59.06 27.908L27.907 59.06l-2.003-2.003 31.154-31.152 2.002 2.002zM22.455 60.162c-.256-.426-.716-.687-1.214-.687h-8.496a1.41 1.41 0 0 0-1.213.687l-4.248 7.08c-.27.448-.27 1 0 1.46l4.248 7.08c.256.426.716.687 1.213.687h8.496c.497 0 .958-.26 1.214-.687l4.248-7.08c.27-.45.27-1 0-1.46l-4.248-7.08zM20.44 73.635h-6.894l-3.4-5.664 3.4-5.664h6.894l3.398 5.664-3.398 5.664zm47.53-39.648A16.94 16.94 0 0 0 84.962 17.11c.005-1.424-.17-2.84-.52-4.22-.2-.76-.957-1.22-1.716-1.032a1.42 1.42 0 0 0-.658.372l-8.815 8.8-6.994-2.33-2.333-6.992L72.742 2.9c.553-.553.552-1.45-.001-2.003a1.41 1.41 0 0 0-.663-.373c-9.07-2.297-18.284 3.193-20.58 12.262-.35 1.376-.523 2.8-.52 4.2a16.66 16.66 0 0 0 .344 3.318L20.3 51.323a16.71 16.71 0 0 0-3.318-.344C7.608 50.98 0 58.587 0 67.972s7.608 16.992 16.993 16.992 16.993-7.608 16.993-16.992a16.81 16.81 0 0 0-.344-3.318l7.424-7.424 3.247 3.247c.553.553 1.45.553 2.003 0l.708-.708c.62-.617 1.625-.617 2.246 0s.622 1.623.003 2.243l-.7.7c-.553.553-.553 1.45 0 2.002l16.892 16.892a11.43 11.43 0 0 0 16.236-16.089L64.726 48.564c-.553-.553-1.45-.553-2.002 0l-.708.708c-.622.617-1.625.617-2.246 0s-.62-1.623-.003-2.243l.7-.7c.553-.553.553-1.45 0-2.002L57.23 41.07l7.424-7.424c1.092.225 2.203.34 3.318.344zm5.564 48.145a8.6 8.6 0 0 1-3.012-.55l11.06-11.06a8.59 8.59 0 0 1-5.016 11.06c-.97.364-1.996.55-3.03.55zM57.492 45.33a4.42 4.42 0 0 0 6.23 6.222l15.892 15.905c.172.173.334.355.5.54L67.997 80.104a8.24 8.24 0 0 1-.541-.49L51.552 63.7a4.42 4.42 0 0 0-6.231-6.222l-2.265-2.265 12.17-12.152 2.266 2.26zM63.2 31.088L31.087 63.204a1.42 1.42 0 0 0-.374 1.346c1.943 7.63-2.667 15.4-10.297 17.33A14.26 14.26 0 0 1 3.083 71.583a14.26 14.26 0 0 1 10.298-17.332 14.27 14.27 0 0 1 7.034 0 1.43 1.43 0 0 0 1.346-.373L53.877 21.76c.352-.352.493-.863.372-1.345C52.32 12.876 56.87 5.2 64.4 3.27a14.1 14.1 0 0 1 4.367-.412l-7.47 7.472c-.38.38-.512.94-.343 1.448l2.832 8.497a1.42 1.42 0 0 0 .896.895l8.497 2.832c.508.17 1.07.037 1.448-.34l7.47-7.47a12.87 12.87 0 0 1 .026.804 14.09 14.09 0 0 1-14.016 14.16 14.11 14.11 0 0 1-3.567-.44 1.42 1.42 0 0 0-1.346.372h.008zm10.012 40.13L71.22 73.22 57.06 59.06l2.002-2.003 14.16 14.16z"/></svg>