<svg xmlns="http://www.w3.org/2000/svg" width="18" height="18" fill="none"><path d="M6 9a3 3 0 1 1 6 0 3 3 0 1 1-6 0zM4.38 9c0 2.552 2.07 4.62 4.622 4.62s4.622-2.07 4.622-4.62S11.553 4.38 9 4.38 4.38 6.448 4.38 9zm8.346-4.805a1.08 1.08 0 0 0 .666.998 1.08 1.08 0 0 0 1.177-.234 1.08 1.08 0 0 0 .235-1.177 1.08 1.08 0 0 0-.998-.667 1.08 1.08 0 0 0-1.08 1.08zm-7.36 12.13c-.877-.04-1.354-.186-1.67-.3-.42-.164-.72-.358-1.035-.673s-.5-.614-.673-1.034c-.124-.317-.27-.794-.3-1.67L1.622 9l.052-3.637c.04-.877.187-1.354.3-1.67.164-.42.358-.72.673-1.035s.614-.5 1.035-.673c.317-.124.794-.27 1.67-.3L9 1.62l3.637.052c.877.04 1.354.187 1.67.3.42.163.72.358 1.035.673s.5.615.673 1.035c.123.317.27.794.3 1.67L16.38 9l-.052 3.637c-.04.877-.187 1.354-.3 1.67a2.79 2.79 0 0 1-.673 1.034c-.315.315-.615.5-1.035.673-.317.123-.794.27-1.67.3L9 16.378c-2.404 0-2.688-.01-3.636-.052zM5.3.055C4.332.098 3.677.25 3.105.473c-.592.23-1.093.538-1.594 1.038S.702 2.513.473 3.105C.25 3.677.098 4.33.055 5.29L0 9l.055 3.7c.044.958.196 1.613.418 2.185a4.4 4.4 0 0 0 1.038 1.594c.5.5 1.002.808 1.594 1.038.573.222 1.227.374 2.185.418L9 18l3.71-.055c.958-.044 1.612-.196 2.185-.418.592-.23 1.093-.538 1.594-1.038s.808-1.003 1.038-1.594c.223-.572.375-1.226.418-2.185L18 9l-.054-3.71c-.044-.958-.196-1.613-.418-2.185-.23-.592-.538-1.093-1.038-1.594S15.488.702 14.896.473C14.324.25 13.67.097 12.712.055L9 0 5.3.055z" fill="#3a5a61"/></svg>