<svg xmlns="http://www.w3.org/2000/svg" width="170" height="50" fill="#00a5c8"><path d="M58.594 14.652h4.584l3.438 16.33 7.817-16.33h4.42l-9.864 19.9h-5.65l-4.748-19.9zM76.1 28.977c0-4.993 2.62-10.232 8.43-10.232 3.56 0 5.075 2.005 5.075 4.134 0 2.865-2.578 4.134-5.198 4.952L80.5 29.06v.4c0 1.392.327 1.924 1.3 1.924 1.023 0 2.62-.573 4.625-1.678l1.473 2.824c-2.2 1.432-4.257 2.333-7.12 2.333-3.93.04-4.666-3.152-4.666-5.894zm8.227-4.42c.9-.328 1.228-.86 1.228-1.473s-.532-1.023-1.105-1.023c-1.678 0-3.03 1.35-3.602 3.765l3.48-1.27zm7.613-5.362h4.256l-.164 1.678c1.146-.778 3.274-2.046 5.075-2.046 2.742 0 3.56.982 3.192 4.666l-1.146 11.092h-4.297l1.146-10.314c.082-1.023.04-1.35-.5-1.35-.982 0-3.192 1.023-3.806 1.3L94.6 34.584h-4.257l1.596-15.4zm15.348 10.683l.82-7.53h-2.25l.368-3.152h2.292l.327-3.15h4.216l-.327 3.15h3.93l-.328 3.152h-3.97l-.86 7.858c-.082.778.082 1.023.573 1.023.655 0 2.128-.205 3.397-.614l.777 3.1c-1.227.573-3.1 1.187-5.157 1.187-3.233 0-4.215-1.228-3.806-5.034zm11.87-10.683h4.257L123.3 20.3c.82-.655 2.456-1.392 3.724-1.392 2.825 0 4.216 1.473 4.216 4.993 0 4.83-2.17 10.97-8.513 10.97-.327 0-.655 0-.94-.04l-.614 5.894h-4.257l2.25-21.528zm7.9 4.8c0-1.105-.573-1.555-1.105-1.555-.94 0-2.005.532-2.946 1.023l-.9 8.063c.246.04.45.04.778.04 3.1 0 4.174-4.9 4.174-7.572zm5.433 4.992c0-5.77 3.07-10.1 8.43-10.1 3.888 0 5.77 2.62 5.77 5.853 0 3.93-1.76 10.2-8.43 10.2-3.684 0-5.77-2.415-5.77-5.935zm9.904-4.216c0-2.046-.94-2.497-2.2-2.497-1.637 0-3.356 2.415-3.356 6.6 0 1.596.696 2.58 2.088 2.58 1.596 0 3.478-2.2 3.478-6.67zm5.536 4.216c0-5.77 3.07-10.1 8.43-10.1 3.888 0 5.77 2.62 5.77 5.853 0 3.93-1.76 10.2-8.43 10.2-3.725 0-5.77-2.415-5.77-5.935zm9.904-4.216c0-2.046-.94-2.497-2.2-2.497-1.637 0-3.356 2.415-3.356 6.6 0 1.596.696 2.58 2.087 2.58 1.556 0 3.48-2.2 3.48-6.67zm7.9-11.46H170l-2.2 21.242h-4.257l2.2-21.242zM45.307 33.356c-2.62-.737-5.32-1.473-9.004-1.555-3.724-.082-6.18.5-8.76 1.064-2.824.655-5.77 1.3-10.518 1.187-4.175-.082-7-.82-9.74-1.514-1.3-.328-2.66-.696-4.175-.982L3.03 29.6c1.76.287 3.233.696 4.748 1.064 2.742.696 5.362 1.392 9.3 1.473 4.543.082 7.326-.532 10.068-1.146 2.578-.573 5.24-1.187 9.2-1.105 3.93.082 6.753.86 9.454 1.596l-.5 1.883zm-18.54 5.116c-.287-.368-.573-.86-.86-1.392-.082-.164-.04-.328.123-.4l.573-.327c1.76-1.064 3.765-1.72 5.812-1.883a13.4 13.4 0 0 1 6.958 1.31l.86.4a11.05 11.05 0 0 1-1.105 1.596l-.573-.286c-1.3-.614-3.397-1.35-5.975-1.105-1.76.123-3.48.696-4.993 1.596l-.82.5zm-6.303 4.83c-1.76 0-3.56-.327-5.403-1.023l-.286-.123c-.164-.04-.246-.246-.205-.368l.5-1.555.696.246c1.8.655 3.602.982 5.28.86 1.27-.082 2.17-.287 3.1-.532a15.97 15.97 0 0 1 3.643-.614c1.883-.082 3.806.205 5.648.86l.573.205c.164.082.287.246.205.45l-.532 1.473-.9-.328c-1.637-.573-3.315-.82-4.952-.778-1.3.04-2.25.286-3.233.573-1.023.246-2.046.532-3.48.614-.205 0-.45 0-.655.04zm-15.102-5.69c1.392-.82 3.684-1.842 6.67-1.965 3.15-.123 5.607.86 7.12 1.678l.5.287c.205.082.246.327.164.532l-.737 1.35-.82-.45c-1.3-.737-3.48-1.555-6.14-1.473-2.538.082-4.543.982-5.73 1.678l-1.023-1.637zm7.162-17.026c-3.274 0-6.712-.9-10.2-2.7l.86-1.678c3.602 1.842 7.122 2.66 10.437 2.456 1.35-.082 2.537-.45 3.888-.86 1.924-.573 4.093-1.187 7.244-1.3 1.473-.04 2.988 0 4.46.164l.5.04c.246.04.45.287.4.532l-.164 1.433-.94-.123c-1.392-.164-2.783-.205-4.175-.164-2.906.123-4.993.696-6.794 1.228-1.432.4-2.783.82-4.297.9-.368.082-.778.082-1.228.082zM23.4 26.644l-.573-1.228c-.123-.287 0-.614.246-.737l.368-.164c2.783-1.3 5.894-2.046 9.004-2.087 3.07-.082 6.22.614 9.086 1.924l.86.4-.573 1.27c-.123.246-.45.368-.696.246l-.4-.164c-2.578-1.187-5.443-1.8-8.267-1.76a20.12 20.12 0 0 0-8.186 1.883l-.86.4zM16.25 12.77l-.573-1.146a.6.6 0 0 1 .287-.819l.287-.164c2.494-1.187 5.073-1.84 7.65-1.84 2.087 0 3.602.368 5.075.737 1.228.327 2.497.655 4.175.778 2.62.205 5.32-.205 8.104-1.146l.614 1.8c-3.03 1.023-6.017 1.432-8.84 1.228-1.842-.123-3.192-.5-4.502-.82-1.392-.368-2.742-.696-4.584-.696-2.292 0-4.584.573-6.835 1.637l-.86.45z"/><path d="M24.516 49.032C11 49.032 0 38.022 0 24.516S11 0 24.516 0s24.516 11 24.516 24.516-11 24.516-24.516 24.516zm0-46.126c-11.9 0-21.6 9.7-21.6 21.6s9.7 21.6 21.6 21.6 21.6-9.7 21.6-21.6-9.7-21.6-21.6-21.6z"/></svg>