<svg xmlns="http://www.w3.org/2000/svg" width="13" height="13" fill="none"><path d="M12.994 10.26a.63.63 0 0 1-.193.551l-1.83 1.818a1.03 1.03 0 0 1-.323.234c-.133.064-.264.106-.392.124-.01 0-.037.002-.083.007s-.105.007-.18.007c-.174 0-.457-.03-.846-.09s-.867-.207-1.43-.44-1.204-.585-1.92-1.053-1.477-1.11-2.285-1.928C2.87 8.855 2.337 8.25 1.915 7.67S1.154 6.557.897 6.066.447 5.13.32 4.73a7.09 7.09 0 0 1-.261-1.033c-.046-.29-.064-.516-.055-.682l.014-.275a1.34 1.34 0 0 1 .124-.392c.064-.133.142-.24.234-.324L2.204.193C2.333.064 2.48 0 2.645 0c.12 0 .225.034.317.103s.17.154.234.255l1.473 2.796a.67.67 0 0 1 .069.482.86.86 0 0 1-.234.441l-.674.675a.23.23 0 0 0-.048.09.34.34 0 0 0-.021.103c.037.193.12.413.248.66.1.22.28.49.51.806s.555.682.977 1.095c.413.422.78.75 1.1.985s.6.406.805.516.38.177.495.2l.172.034c.018 0 .048-.007.09-.02a.23.23 0 0 0 .089-.048l.784-.8a.84.84 0 0 1 .578-.22c.156 0 .28.028.372.083h.014l2.656 1.57c.193.12.307.27.344.454z" fill="#9cda5d"/></svg>