<svg xmlns="http://www.w3.org/2000/svg" width="84" height="60" fill="none"><path d="M80.726 5.075C77.694 1.47 72.096 0 61.404 0h-38.81C11.66 0 5.966 1.565 2.945 5.403 0 9.144 0 14.657 0 22.287V36.83C0 51.61 3.494 59.116 22.595 59.116h38.8c9.272 0 14.41-1.297 17.733-4.478C82.546 51.376 84 46.05 84 36.83V22.287c0-8.046-.228-13.592-3.274-17.212zm-26.798 26.49l-17.623 9.21c-.394.206-.825.308-1.255.308a2.71 2.71 0 0 1-2.71-2.71V20.013a2.71 2.71 0 0 1 3.959-2.405l17.623 9.15a2.71 2.71 0 0 1 .006 4.806z" fill="red"/></svg>