<svg xmlns="http://www.w3.org/2000/svg" width="18" height="10" fill="none"><path fill-rule="evenodd" d="M17.587.677c.125-.4 0-.677-.596-.677h-1.97c-.5 0-.73.248-.857.52 0 0-1 2.283-2.42 3.766-.46.43-.668.566-.918.566-.125 0-.306-.136-.306-.527V.677C10.52.21 10.376 0 9.96 0H6.864c-.313 0-.5.217-.5.423 0 .444.71.546.782 1.795v2.713c0 .595-.115.703-.365.703-.668 0-2.29-2.294-3.255-4.918-.19-.5-.378-.716-.88-.716H.675C.113 0 0 .248 0 .52 0 1.01.668 3.43 3.11 6.63 4.736 8.815 7.028 10 9.115 10c1.252 0 1.407-.263 1.407-.716V7.632c0-.526.12-.63.515-.63.292 0 .793.137 1.96 1.2C14.333 9.44 14.553 10 15.304 10h1.97c.563 0 .844-.263.682-.783-.177-.518-.815-1.268-1.66-2.16-.46-.508-1.148-1.054-1.356-1.327-.292-.35-.21-.507 0-.82 0 0 2.4-3.162 2.65-4.235z" fill="#3a5a61"/></svg>