<svg xmlns="http://www.w3.org/2000/svg" width="92" height="9" fill="none"><path d="M90.44 5.86c-2.568 0-3.772-1.11-5.295-2.517C83.448 1.776 81.524 0 77.743 0s-5.705 1.776-7.403 3.343C68.816 4.75 67.613 5.86 65.045 5.86s-3.77-1.11-5.295-2.517C58.053 1.776 56.13 0 52.347 0s-5.705 1.776-7.403 3.343C43.42 4.75 42.218 5.86 39.65 5.86s-3.77-1.11-5.294-2.517C32.658 1.776 30.735 0 26.954 0S21.25 1.776 19.55 3.343C18.028 4.75 16.824 5.86 14.257 5.86s-3.77-1.11-5.295-2.517C7.264 1.776 5.34 0 1.56 0 .698 0 0 .703 0 1.57s.698 1.57 1.56 1.57c2.568 0 3.77 1.11 5.294 2.517C8.55 7.223 10.475 9 14.257 9s5.705-1.776 7.403-3.343c1.523-1.406 2.727-2.517 5.295-2.517s3.77 1.11 5.294 2.517C33.945 7.224 35.87 9 39.65 9s5.705-1.776 7.403-3.343C48.576 4.25 49.78 3.14 52.347 3.14s3.77 1.11 5.295 2.517C59.34 7.224 61.264 9 65.045 9s5.705-1.776 7.403-3.343c1.524-1.406 2.727-2.517 5.295-2.517s3.77 1.11 5.295 2.517C84.735 7.224 86.66 9 90.44 9c.86 0 1.56-.703 1.56-1.57s-.698-1.57-1.56-1.57z" fill="#cee7ec"/></svg>